<svg width="35" height="35" viewBox="0 0 35 35" fill="none" xmlns="http://www.w3.org/2000/svg">
<path d="M35 17.5C35 7.83398 27.166 0 17.5 0C7.83398 0 0 7.83398 0 17.5C0 27.166 7.83398 35 17.5 35C17.6025 35 17.7051 35 17.8076 34.9932V21.376H14.0479V16.9941H17.8076V13.7676C17.8076 10.0283 20.0908 7.99121 23.4268 7.99121C25.0264 7.99121 26.4004 8.10742 26.7969 8.16211V12.0723H24.5C22.6885 12.0723 22.333 12.9336 22.333 14.1982V16.9873H26.6738L26.1064 21.3691H22.333V34.3232C29.6475 32.2246 35 25.4912 35 17.5Z" fill="white"/>
</svg>
