<svg width="35" height="35" viewBox="0 0 35 35" fill="none" xmlns="http://www.w3.org/2000/svg">
<path d="M20.8496 17.5C20.8496 19.35 19.35 20.8496 17.5 20.8496C15.65 20.8496 14.1504 19.35 14.1504 17.5C14.1504 15.65 15.65 14.1504 17.5 14.1504C19.35 14.1504 20.8496 15.65 20.8496 17.5Z" fill="white"/>
<path d="M25.3335 11.5734C25.1725 11.1371 24.9156 10.7421 24.5818 10.418C24.2577 10.0842 23.863 9.82729 23.4264 9.66627C23.0723 9.52875 22.5404 9.36506 21.5607 9.32047C20.5008 9.27213 20.1831 9.26172 17.5 9.26172C14.8166 9.26172 14.4988 9.27187 13.4393 9.3202C12.4595 9.36506 11.9273 9.52875 11.5735 9.66627C11.1369 9.82729 10.742 10.0842 10.4181 10.418C10.0843 10.7421 9.82743 11.1368 9.66615 11.5734C9.52863 11.9275 9.36494 12.4597 9.32034 13.4394C9.27201 14.499 9.2616 14.8167 9.2616 17.5001C9.2616 20.1832 9.27201 20.501 9.32034 21.5608C9.36494 22.5405 9.52863 23.0724 9.66615 23.4265C9.82743 23.8631 10.084 24.2578 10.4178 24.582C10.742 24.9157 11.1367 25.1726 11.5733 25.3336C11.9273 25.4714 12.4595 25.6351 13.4393 25.6797C14.4988 25.7281 14.8163 25.7382 17.4997 25.7382C20.1833 25.7382 20.5011 25.7281 21.5604 25.6797C22.5401 25.6351 23.0723 25.4714 23.4264 25.3336C24.3028 24.9956 24.9955 24.3029 25.3335 23.4265C25.471 23.0724 25.6347 22.5405 25.6796 21.5608C25.7279 20.501 25.7381 20.1832 25.7381 17.5001C25.7381 14.8167 25.7279 14.499 25.6796 13.4394C25.635 12.4597 25.4713 11.9275 25.3335 11.5734ZM17.5 22.6599C14.65 22.6599 12.3396 20.3498 12.3396 17.4998C12.3396 14.6498 14.65 12.3398 17.5 12.3398C20.3497 12.3398 22.66 14.6498 22.66 17.4998C22.66 20.3498 20.3497 22.6599 17.5 22.6599ZM22.864 13.3417C22.1981 13.3417 21.6581 12.8017 21.6581 12.1357C21.6581 11.4698 22.1981 10.9298 22.864 10.9298C23.53 10.9298 24.0699 11.4698 24.0699 12.1357C24.0697 12.8017 23.53 13.3417 22.864 13.3417Z" fill="white"/>
<path d="M17.5 0C7.83649 0 0 7.83649 0 17.5C0 27.1635 7.83649 35 17.5 35C27.1635 35 35 27.1635 35 17.5C35 7.83649 27.1635 0 17.5 0ZM27.4882 21.643C27.4396 22.7127 27.2695 23.443 27.0212 24.0823C26.4991 25.4321 25.4321 26.4991 24.0823 27.0212C23.4433 27.2695 22.7127 27.4393 21.6432 27.4882C20.5716 27.5371 20.2293 27.5488 17.5003 27.5488C14.771 27.5488 14.4289 27.5371 13.357 27.4882C12.2876 27.4393 11.557 27.2695 10.918 27.0212C10.2472 26.7688 9.64001 26.3734 9.13799 25.862C8.6269 25.3603 8.23143 24.7528 7.97909 24.0823C7.73075 23.4433 7.56065 22.7127 7.51205 21.6432C7.46265 20.5714 7.45117 20.229 7.45117 17.5C7.45117 14.771 7.46265 14.4286 7.51179 13.357C7.56039 12.2873 7.73022 11.557 7.97855 10.9177C8.2309 10.2472 8.62663 9.63974 9.13799 9.13799C9.63974 8.62663 10.2472 8.23116 10.9177 7.97882C11.557 7.73048 12.2873 7.56065 13.357 7.51179C14.4286 7.46292 14.771 7.45117 17.5 7.45117C20.229 7.45117 20.5714 7.46292 21.643 7.51205C22.7127 7.56065 23.443 7.73048 24.0823 7.97855C24.7528 8.2309 25.3603 8.62663 25.8623 9.13799C26.3734 9.64001 26.7691 10.2472 27.0212 10.9177C27.2698 11.557 27.4396 12.2873 27.4885 13.357C27.5373 14.4286 27.5488 14.771 27.5488 17.5C27.5488 20.229 27.5373 20.5714 27.4882 21.643Z" fill="white"/>
</svg>
