<svg width="35" height="35" viewBox="0 0 35 35" fill="none" xmlns="http://www.w3.org/2000/svg">
<path d="M17.5 0C7.83649 0 0 7.83649 0 17.5C0 27.1635 7.83649 35 17.5 35C27.1635 35 35 27.1635 35 17.5C35 7.83649 27.1635 0 17.5 0ZM25.4903 13.6446C25.498 13.8169 25.5018 13.9899 25.5018 14.1637C25.5018 19.4715 21.4616 25.592 14.0732 25.5923H14.0735H14.0732C11.8048 25.5923 9.69395 24.9274 7.91634 23.788C8.23063 23.8251 8.55053 23.8435 8.87444 23.8435C10.7565 23.8435 12.4884 23.2016 13.8633 22.1241C12.1049 22.0916 10.6224 20.9303 10.1108 19.3342C10.3556 19.3812 10.6075 19.4069 10.8657 19.4069C11.2323 19.4069 11.5874 19.3575 11.925 19.2653C10.087 18.8974 8.70247 17.273 8.70247 15.328C8.70247 15.3098 8.70247 15.2935 8.703 15.2767C9.24427 15.5777 9.86324 15.7587 10.5223 15.779C9.44374 15.0594 8.73478 13.8292 8.73478 12.4355C8.73478 11.6996 8.93372 11.0101 9.27872 10.4165C11.2595 12.847 14.2198 14.4455 17.5582 14.6134C17.4893 14.3192 17.4538 14.0126 17.4538 13.6975C17.4538 11.4801 19.2528 9.68113 21.471 9.68113C22.6264 9.68113 23.67 10.1695 24.403 10.9503C25.3181 10.7698 26.1774 10.4355 26.9536 9.9754C26.6532 10.9129 26.0166 11.6996 25.1872 12.1971C25.9998 12.0999 26.7742 11.8844 27.4938 11.5645C26.9563 12.3701 26.2746 13.0777 25.4903 13.6446Z" fill="white"/>
</svg>
