<svg width="10" height="17" viewBox="0 0 10 17" fill="none" xmlns="http://www.w3.org/2000/svg">
<path d="M3.08643 8.42867L9.18623 2.32887L9.18626 2.32884C9.60458 1.91045 9.60458 1.23216 9.18626 0.813772L9.18615 0.813666C8.76776 0.395459 8.08956 0.395421 7.67116 0.813692L7.67111 0.813745L0.813745 7.67111L0.813692 7.67116C0.395436 8.08954 0.395436 8.76779 0.813692 9.18618L0.813745 9.18623L7.67111 16.0436L7.67105 16.0436L7.67731 16.0497C8.10296 16.4608 8.78125 16.449 9.19233 16.0233L9.19235 16.0233C9.5933 15.6081 9.59333 14.9499 9.19232 14.5347L9.19238 14.5346L9.18623 14.5285L3.08643 8.42867Z" fill="black" stroke="#010101"/>
</svg>
