<svg width="135" height="50" viewBox="0 0 135 50" fill="none" xmlns="http://www.w3.org/2000/svg">
<path d="M68.112 15.4L65.856 17.752V22H61.992V5.2H65.856V13.048L73.296 5.2H77.616L70.656 12.688L78.024 22H73.488L68.112 15.4ZM92.0586 9.088V22H88.4826V20.512C87.5546 21.632 86.2106 22.192 84.4506 22.192C83.2346 22.192 82.1306 21.92 81.1386 21.376C80.1626 20.832 79.3946 20.056 78.8346 19.048C78.2746 18.04 77.9946 16.872 77.9946 15.544C77.9946 14.216 78.2746 13.048 78.8346 12.04C79.3946 11.032 80.1626 10.256 81.1386 9.712C82.1306 9.168 83.2346 8.896 84.4506 8.896C86.0986 8.896 87.3866 9.416 88.3146 10.456V9.088H92.0586ZM85.0986 19.12C86.0426 19.12 86.8266 18.8 87.4506 18.16C88.0746 17.504 88.3866 16.632 88.3866 15.544C88.3866 14.456 88.0746 13.592 87.4506 12.952C86.8266 12.296 86.0426 11.968 85.0986 11.968C84.1386 11.968 83.3466 12.296 82.7226 12.952C82.0986 13.592 81.7866 14.456 81.7866 15.544C81.7866 16.632 82.0986 17.504 82.7226 18.16C83.3466 18.8 84.1386 19.12 85.0986 19.12ZM99.1009 10.792C99.5489 10.168 100.149 9.696 100.901 9.376C101.669 9.056 102.549 8.896 103.541 8.896V12.352C103.125 12.32 102.845 12.304 102.701 12.304C101.629 12.304 100.789 12.608 100.181 13.216C99.5729 13.808 99.2689 14.704 99.2689 15.904V22H95.5249V9.088H99.1009V10.792ZM110.399 22.192C108.943 22.192 107.807 21.808 106.991 21.04C106.175 20.256 105.767 19.152 105.767 17.728V4.192H109.511V17.512C109.511 18.056 109.647 18.48 109.919 18.784C110.207 19.072 110.607 19.216 111.119 19.216C111.311 19.216 111.503 19.192 111.695 19.144C111.903 19.096 112.063 19.04 112.175 18.976L112.343 21.88C111.719 22.088 111.071 22.192 110.399 22.192ZM67.512 46.288C66.184 46.288 64.896 46.112 63.648 45.76C62.416 45.392 61.424 44.92 60.672 44.344L61.992 41.416C62.712 41.944 63.568 42.368 64.56 42.688C65.552 43.008 66.544 43.168 67.536 43.168C68.64 43.168 69.456 43.008 69.984 42.688C70.512 42.352 70.776 41.912 70.776 41.368C70.776 40.968 70.616 40.64 70.296 40.384C69.992 40.112 69.592 39.896 69.096 39.736C68.616 39.576 67.96 39.4 67.128 39.208C65.848 38.904 64.8 38.6 63.984 38.296C63.168 37.992 62.464 37.504 61.872 36.832C61.296 36.16 61.008 35.264 61.008 34.144C61.008 33.168 61.272 32.288 61.8 31.504C62.328 30.704 63.12 30.072 64.176 29.608C65.248 29.144 66.552 28.912 68.088 28.912C69.16 28.912 70.208 29.04 71.232 29.296C72.256 29.552 73.152 29.92 73.92 30.4L72.72 33.352C71.168 32.472 69.616 32.032 68.064 32.032C66.976 32.032 66.168 32.208 65.64 32.56C65.128 32.912 64.872 33.376 64.872 33.952C64.872 34.528 65.168 34.96 65.76 35.248C66.368 35.52 67.288 35.792 68.52 36.064C69.8 36.368 70.848 36.672 71.664 36.976C72.48 37.28 73.176 37.76 73.752 38.416C74.344 39.072 74.64 39.96 74.64 41.08C74.64 42.04 74.368 42.92 73.824 43.72C73.296 44.504 72.496 45.128 71.424 45.592C70.352 46.056 69.048 46.288 67.512 46.288ZM84.8807 32.896C86.4807 32.896 87.7687 33.376 88.7447 34.336C89.7367 35.296 90.2327 36.72 90.2327 38.608V46H86.4887V39.184C86.4887 38.16 86.2647 37.4 85.8167 36.904C85.3687 36.392 84.7207 36.136 83.8727 36.136C82.9287 36.136 82.1767 36.432 81.6167 37.024C81.0567 37.6 80.7767 38.464 80.7767 39.616V46H77.0327V28.192H80.7767V34.432C81.2727 33.936 81.8727 33.56 82.5767 33.304C83.2807 33.032 84.0487 32.896 84.8807 32.896ZM114.996 45.376C114.628 45.648 114.172 45.856 113.628 46C113.1 46.128 112.548 46.192 111.972 46.192C110.42 46.192 109.228 45.8 108.396 45.016C107.564 44.232 107.148 43.08 107.148 41.56V30.232H110.892V33.376H114.084V36.256H110.892V41.512C110.892 42.056 111.028 42.48 111.3 42.784C111.572 43.072 111.964 43.216 112.476 43.216C113.052 43.216 113.564 43.056 114.012 42.736L114.996 45.376ZM121.455 46.192C120.383 46.192 119.335 46.064 118.311 45.808C117.287 45.536 116.471 45.2 115.863 44.8L117.111 42.112C117.687 42.48 118.383 42.784 119.199 43.024C120.015 43.248 120.815 43.36 121.599 43.36C123.183 43.36 123.975 42.968 123.975 42.184C123.975 41.816 123.759 41.552 123.327 41.392C122.895 41.232 122.231 41.096 121.335 40.984C120.279 40.824 119.407 40.64 118.719 40.432C118.031 40.224 117.431 39.856 116.919 39.328C116.423 38.8 116.175 38.048 116.175 37.072C116.175 36.256 116.407 35.536 116.871 34.912C117.351 34.272 118.039 33.776 118.935 33.424C119.847 33.072 120.919 32.896 122.151 32.896C123.063 32.896 123.967 33 124.863 33.208C125.775 33.4 126.527 33.672 127.119 34.024L125.871 36.688C124.735 36.048 123.495 35.728 122.151 35.728C121.351 35.728 120.751 35.84 120.351 36.064C119.951 36.288 119.751 36.576 119.751 36.928C119.751 37.328 119.967 37.608 120.399 37.768C120.831 37.928 121.519 38.08 122.463 38.224C123.519 38.4 124.383 38.592 125.055 38.8C125.727 38.992 126.311 39.352 126.807 39.88C127.303 40.408 127.551 41.144 127.551 42.088C127.551 42.888 127.311 43.6 126.831 44.224C126.351 44.848 125.647 45.336 124.719 45.688C123.807 46.024 122.719 46.192 121.455 46.192ZM131.277 46.192C130.621 46.192 130.069 45.968 129.621 45.52C129.173 45.072 128.949 44.512 128.949 43.84C128.949 43.152 129.173 42.6 129.621 42.184C130.069 41.752 130.621 41.536 131.277 41.536C131.933 41.536 132.485 41.752 132.933 42.184C133.381 42.6 133.605 43.152 133.605 43.84C133.605 44.512 133.381 45.072 132.933 45.52C132.485 45.968 131.933 46.192 131.277 46.192Z" fill="white"/>
<path d="M25 0C11.1833 0 0 11.1814 0 25C0 38.8167 11.1814 50 25 50C38.8167 50 50 38.8187 50 25C50 11.1833 38.8186 0 25 0ZM45.6309 35.2987C32.7386 12.9687 33.763 14.6887 33.397 14.2356H45.3912C48.8004 20.6744 48.9806 28.6047 45.6309 35.2987ZM32.1627 34.1225C31.5762 35.1354 30.4852 35.7644 29.3145 35.7644C28.1432 35.7644 21.4414 35.7644 20.6854 35.7644C19.5133 35.7644 18.4211 35.1337 17.8351 34.1187L13.5205 26.6457C12.9345 25.6306 12.9345 24.3693 13.5205 23.3543L17.8351 15.8813C18.4211 14.8662 19.5134 14.2356 20.6854 14.2356H29.3145C30.4866 14.2356 31.5789 14.8663 32.1648 15.8813L36.4794 23.3543C37.0654 24.3694 37.0654 25.6307 36.4794 26.6457C35.9337 27.591 32.6373 33.3005 32.1627 34.1225ZM23.5972 1.99482L23.2388 2.61553C22.969 3.08262 23.1291 3.67988 23.5962 3.94951C24.0611 4.21797 24.6594 4.06123 24.9302 3.59209L25.8673 1.96895C33.5516 2.25127 40.2364 6.27236 44.2291 12.2824C44.2174 12.2824 20.4592 12.254 19.8763 12.3457L21.0359 10.3372C21.3057 9.87012 21.1456 9.27285 20.6785 9.00322C20.2116 8.73369 19.6143 8.89355 19.3445 9.36064C17.0484 13.3159 11.771 22.353 11.4794 23.1101L5.48379 12.7257C9.36133 6.58691 15.9846 2.44893 23.5972 1.99482ZM4.36914 14.7012C10.2844 24.9834 16.0932 35.1332 16.603 35.7644H4.60889C1.19951 29.3254 1.01943 21.3952 4.36914 14.7012ZM5.7709 37.7175C31.553 37.7175 29.5486 37.7446 30.1236 37.6542L24.1543 47.9936C24.1472 48.006 24.1403 48.0185 24.1338 48.031C16.4491 47.7489 9.76328 43.7271 5.7709 37.7175ZM26.4028 48.0052C39.2857 25.6914 38.3115 27.4331 38.5207 26.8897L44.5162 37.2742C40.631 43.4254 34.0019 47.552 26.4028 48.0052Z" fill="white"/>
<path d="M22.0552 7.59521H22.0576C22.597 7.59521 23.0329 7.15801 23.0329 6.61865C23.0329 6.0793 22.5945 5.64209 22.0552 5.64209C21.5158 5.64209 21.0786 6.0793 21.0786 6.61865C21.0786 7.15801 21.5158 7.59521 22.0552 7.59521Z" fill="white"/>
<path d="M99 34C95.684 34 93 36.6835 93 40C93 43.316 95.6835 46 99 46C102.316 46 105 43.3165 105 40C105 36.684 102.316 34 99 34ZM103.951 42.4717C100.857 37.1125 101.103 37.5253 101.015 37.4166H103.894C104.712 38.9619 104.755 40.8651 103.951 42.4717ZM100.719 42.1894C100.578 42.4325 100.316 42.5834 100.035 42.5834C99.7544 42.5834 98.1459 42.5834 97.9645 42.5834C97.6832 42.5834 97.4211 42.4321 97.2804 42.1885L96.2449 40.395C96.1043 40.1513 96.1043 39.8486 96.2449 39.605L97.2804 37.8115C97.4211 37.5679 97.6832 37.4166 97.9645 37.4166H100.035C100.317 37.4166 100.579 37.5679 100.72 37.8115L101.755 39.605C101.896 39.8487 101.896 40.1514 101.755 40.395C101.624 40.6218 100.833 41.9921 100.719 42.1894ZM98.6633 34.4788L98.5773 34.6277C98.5126 34.7398 98.551 34.8832 98.6631 34.9479C98.7747 35.0123 98.9183 34.9747 98.9832 34.8621L99.2081 34.4725C101.052 34.5403 102.657 35.5054 103.615 36.9478C103.612 36.9478 97.9102 36.941 97.7703 36.963L98.0486 36.4809C98.1134 36.3688 98.0749 36.2255 97.9628 36.1608C97.8508 36.0961 97.7074 36.1345 97.6427 36.2466C97.0916 37.1958 95.825 39.3647 95.7551 39.5464L94.3161 37.0542C95.2467 35.5809 96.8363 34.5877 98.6633 34.4788ZM94.0486 37.5283C95.4683 39.996 96.8624 42.432 96.9847 42.5834H94.1061C93.2879 41.0381 93.2447 39.1349 94.0486 37.5283ZM94.385 43.0522C100.573 43.0522 100.092 43.0587 100.23 43.037L98.797 45.5185C98.7953 45.5214 98.7937 45.5244 98.7921 45.5274C96.9478 45.4597 95.3432 44.4945 94.385 43.0522ZM99.3367 45.5212C102.429 40.1659 102.195 40.5839 102.245 40.4535L103.684 42.9458C102.751 44.4221 101.16 45.4125 99.3367 45.5212Z" fill="white" stroke="white" stroke-width="0.2"/>
<path d="M98.2932 35.823H98.2938C98.4233 35.823 98.5279 35.7181 98.5279 35.5886C98.5279 35.4592 98.4227 35.3542 98.2932 35.3542C98.1638 35.3542 98.0589 35.4592 98.0589 35.5886C98.0589 35.7181 98.1638 35.823 98.2932 35.823Z" fill="white" stroke="white" stroke-width="0.2"/>
</svg>
