<svg width="137" height="50" viewBox="0 0 137 50" fill="none" xmlns="http://www.w3.org/2000/svg">
<path d="M68.112 15.4L65.856 17.752V22H61.992V5.2H65.856V13.048L73.296 5.2H77.616L70.656 12.688L78.024 22H73.488L68.112 15.4ZM92.0586 9.088V22H88.4826V20.512C87.5546 21.632 86.2106 22.192 84.4506 22.192C83.2346 22.192 82.1306 21.92 81.1386 21.376C80.1626 20.832 79.3946 20.056 78.8346 19.048C78.2746 18.04 77.9946 16.872 77.9946 15.544C77.9946 14.216 78.2746 13.048 78.8346 12.04C79.3946 11.032 80.1626 10.256 81.1386 9.712C82.1306 9.168 83.2346 8.896 84.4506 8.896C86.0986 8.896 87.3866 9.416 88.3146 10.456V9.088H92.0586ZM85.0986 19.12C86.0426 19.12 86.8266 18.8 87.4506 18.16C88.0746 17.504 88.3866 16.632 88.3866 15.544C88.3866 14.456 88.0746 13.592 87.4506 12.952C86.8266 12.296 86.0426 11.968 85.0986 11.968C84.1386 11.968 83.3466 12.296 82.7226 12.952C82.0986 13.592 81.7866 14.456 81.7866 15.544C81.7866 16.632 82.0986 17.504 82.7226 18.16C83.3466 18.8 84.1386 19.12 85.0986 19.12ZM99.1009 10.792C99.5489 10.168 100.149 9.696 100.901 9.376C101.669 9.056 102.549 8.896 103.541 8.896V12.352C103.125 12.32 102.845 12.304 102.701 12.304C101.629 12.304 100.789 12.608 100.181 13.216C99.5729 13.808 99.2689 14.704 99.2689 15.904V22H95.5249V9.088H99.1009V10.792ZM110.399 22.192C108.943 22.192 107.807 21.808 106.991 21.04C106.175 20.256 105.767 19.152 105.767 17.728V4.192H109.511V17.512C109.511 18.056 109.647 18.48 109.919 18.784C110.207 19.072 110.607 19.216 111.119 19.216C111.311 19.216 111.503 19.192 111.695 19.144C111.903 19.096 112.063 19.04 112.175 18.976L112.343 21.88C111.719 22.088 111.071 22.192 110.399 22.192ZM99.7704 46.192C98.4104 46.192 97.1864 45.912 96.0984 45.352C95.0264 44.776 94.1864 43.984 93.5784 42.976C92.9704 41.968 92.6664 40.824 92.6664 39.544C92.6664 38.264 92.9704 37.12 93.5784 36.112C94.1864 35.104 95.0264 34.32 96.0984 33.76C97.1864 33.184 98.4104 32.896 99.7704 32.896C101.13 32.896 102.346 33.184 103.418 33.76C104.49 34.32 105.33 35.104 105.938 36.112C106.546 37.12 106.85 38.264 106.85 39.544C106.85 40.824 106.546 41.968 105.938 42.976C105.33 43.984 104.49 44.776 103.418 45.352C102.346 45.912 101.13 46.192 99.7704 46.192ZM99.7704 43.12C100.73 43.12 101.514 42.8 102.122 42.16C102.746 41.504 103.058 40.632 103.058 39.544C103.058 38.456 102.746 37.592 102.122 36.952C101.514 36.296 100.73 35.968 99.7704 35.968C98.8104 35.968 98.0184 36.296 97.3944 36.952C96.7704 37.592 96.4584 38.456 96.4584 39.544C96.4584 40.632 96.7704 41.504 97.3944 42.16C98.0184 42.8 98.8104 43.12 99.7704 43.12ZM133.41 46.192C132.754 46.192 132.202 45.968 131.754 45.52C131.306 45.072 131.082 44.512 131.082 43.84C131.082 43.152 131.306 42.6 131.754 42.184C132.202 41.752 132.754 41.536 133.41 41.536C134.066 41.536 134.618 41.752 135.066 42.184C135.514 42.6 135.738 43.152 135.738 43.84C135.738 44.512 135.514 45.072 135.066 45.52C134.618 45.968 134.066 46.192 133.41 46.192Z" fill="white"/>
<path d="M67.512 46.288C66.184 46.288 64.896 46.112 63.648 45.76C62.416 45.392 61.424 44.92 60.672 44.344L61.992 41.416C62.712 41.944 63.568 42.368 64.56 42.688C65.552 43.008 66.544 43.168 67.536 43.168C68.64 43.168 69.456 43.008 69.984 42.688C70.512 42.352 70.776 41.912 70.776 41.368C70.776 40.968 70.616 40.64 70.296 40.384C69.992 40.112 69.592 39.896 69.096 39.736C68.616 39.576 67.96 39.4 67.128 39.208C65.848 38.904 64.8 38.6 63.984 38.296C63.168 37.992 62.464 37.504 61.872 36.832C61.296 36.16 61.008 35.264 61.008 34.144C61.008 33.168 61.272 32.288 61.8 31.504C62.328 30.704 63.12 30.072 64.176 29.608C65.248 29.144 66.552 28.912 68.088 28.912C69.16 28.912 70.208 29.04 71.232 29.296C72.256 29.552 73.152 29.92 73.92 30.4L72.72 33.352C71.168 32.472 69.616 32.032 68.064 32.032C66.976 32.032 66.168 32.208 65.64 32.56C65.128 32.912 64.872 33.376 64.872 33.952C64.872 34.528 65.168 34.96 65.76 35.248C66.368 35.52 67.288 35.792 68.52 36.064C69.8 36.368 70.848 36.672 71.664 36.976C72.48 37.28 73.176 37.76 73.752 38.416C74.344 39.072 74.64 39.96 74.64 41.08C74.64 42.04 74.368 42.92 73.824 43.72C73.296 44.504 72.496 45.128 71.424 45.592C70.352 46.056 69.048 46.288 67.512 46.288ZM84.8807 32.896C86.4807 32.896 87.7687 33.376 88.7447 34.336C89.7367 35.296 90.2327 36.72 90.2327 38.608V46H86.4887V39.184C86.4887 38.16 86.2647 37.4 85.8167 36.904C85.3687 36.392 84.7207 36.136 83.8727 36.136C82.9287 36.136 82.1767 36.432 81.6167 37.024C81.0567 37.6 80.7767 38.464 80.7767 39.616V46H77.0327V28.192H80.7767V34.432C81.2727 33.936 81.8727 33.56 82.5767 33.304C83.2807 33.032 84.0487 32.896 84.8807 32.896ZM117.129 45.376C116.761 45.648 116.305 45.856 115.761 46C115.233 46.128 114.681 46.192 114.105 46.192C112.553 46.192 111.361 45.8 110.529 45.016C109.697 44.232 109.281 43.08 109.281 41.56V30.232H113.025V33.376H116.217V36.256H113.025V41.512C113.025 42.056 113.161 42.48 113.433 42.784C113.705 43.072 114.097 43.216 114.609 43.216C115.185 43.216 115.697 43.056 116.145 42.736L117.129 45.376ZM123.588 46.192C122.516 46.192 121.468 46.064 120.444 45.808C119.42 45.536 118.604 45.2 117.996 44.8L119.244 42.112C119.82 42.48 120.516 42.784 121.332 43.024C122.148 43.248 122.948 43.36 123.732 43.36C125.316 43.36 126.108 42.968 126.108 42.184C126.108 41.816 125.892 41.552 125.46 41.392C125.028 41.232 124.364 41.096 123.468 40.984C122.412 40.824 121.54 40.64 120.852 40.432C120.164 40.224 119.564 39.856 119.052 39.328C118.556 38.8 118.308 38.048 118.308 37.072C118.308 36.256 118.54 35.536 119.004 34.912C119.484 34.272 120.172 33.776 121.068 33.424C121.98 33.072 123.052 32.896 124.284 32.896C125.196 32.896 126.1 33 126.996 33.208C127.908 33.4 128.66 33.672 129.252 34.024L128.004 36.688C126.868 36.048 125.628 35.728 124.284 35.728C123.484 35.728 122.884 35.84 122.484 36.064C122.084 36.288 121.884 36.576 121.884 36.928C121.884 37.328 122.1 37.608 122.532 37.768C122.964 37.928 123.652 38.08 124.596 38.224C125.652 38.4 126.516 38.592 127.188 38.8C127.86 38.992 128.444 39.352 128.94 39.88C129.436 40.408 129.684 41.144 129.684 42.088C129.684 42.888 129.444 43.6 128.964 44.224C128.484 44.848 127.78 45.336 126.852 45.688C125.94 46.024 124.852 46.192 123.588 46.192Z" fill="#E2A000"/>
<path d="M25 0.976562C11.7322 0.976562 0.976562 11.7322 0.976562 25C0.976562 38.2678 11.7322 49.0234 25 49.0234C38.2678 49.0234 49.0234 38.2678 49.0234 25C49.0234 11.7322 38.2678 0.976562 25 0.976562ZM37.3252 27.134L33.0106 34.6069C32.2482 35.9274 30.8393 36.7409 29.3145 36.7409H20.6854C19.1606 36.7409 17.7517 35.9274 16.9893 34.6069L12.6747 27.134C11.9123 25.8135 11.9123 24.1865 12.6747 22.866L16.9893 15.3931C17.7517 14.0726 19.1606 13.2591 20.6854 13.2591H29.3145C30.8393 13.2591 32.2482 14.0726 33.0106 15.3931L37.3252 22.866C38.0876 24.1865 38.0876 25.8135 37.3252 27.134Z" fill="#0F0F0F"/>
<path d="M33.0106 15.393C32.2482 14.0725 30.8393 13.259 29.3145 13.259H20.6854C19.1606 13.259 17.7517 14.0725 16.9893 15.393L12.6747 22.866C11.9123 24.1865 11.9123 25.8134 12.6747 27.1339L16.9893 34.6069C17.7517 35.9274 19.1606 36.7409 20.6854 36.7409H29.3145C30.8393 36.7409 32.2482 35.9274 33.0106 34.6069L37.3252 27.1339C38.0876 25.8134 38.0876 24.1865 37.3252 22.866L33.0106 15.393Z" fill="#E2A000"/>
<path d="M25 0C11.1833 0 0 11.1814 0 25C0 38.8167 11.1814 50 25 50C38.8167 50 50 38.8187 50 25C50 11.1833 38.8186 0 25 0ZM45.6309 35.2987C32.7386 12.9687 33.763 14.6887 33.397 14.2356H45.3912C48.8004 20.6744 48.9806 28.6047 45.6309 35.2987ZM32.1627 34.1225C31.5762 35.1354 30.4852 35.7644 29.3145 35.7644C28.1432 35.7644 21.4414 35.7644 20.6854 35.7644C19.5133 35.7644 18.4211 35.1337 17.8351 34.1187L13.5205 26.6457C12.9345 25.6306 12.9345 24.3693 13.5205 23.3543L17.8351 15.8813C18.4211 14.8662 19.5134 14.2356 20.6854 14.2356H29.3145C30.4866 14.2356 31.5789 14.8663 32.1648 15.8813L36.4794 23.3543C37.0654 24.3694 37.0654 25.6307 36.4794 26.6457C35.9337 27.591 32.6373 33.3005 32.1627 34.1225ZM23.5972 1.99482L23.2388 2.61553C22.969 3.08262 23.1291 3.67988 23.5962 3.94951C24.0611 4.21797 24.6594 4.06123 24.9302 3.59209L25.8673 1.96895C33.5516 2.25127 40.2364 6.27236 44.2291 12.2824C44.2174 12.2824 20.4592 12.254 19.8763 12.3457L21.0359 10.3372C21.3057 9.87012 21.1456 9.27285 20.6785 9.00322C20.2116 8.73369 19.6143 8.89355 19.3445 9.36064C17.0484 13.3159 11.771 22.353 11.4794 23.1101L5.48379 12.7257C9.36133 6.58691 15.9846 2.44893 23.5972 1.99482ZM4.36914 14.7012C10.2844 24.9834 16.0932 35.1332 16.603 35.7644H4.60889C1.19951 29.3254 1.01943 21.3952 4.36914 14.7012ZM5.7709 37.7175C31.553 37.7175 29.5486 37.7446 30.1236 37.6542L24.1543 47.9936C24.1472 48.006 24.1403 48.0185 24.1338 48.031C16.4491 47.7489 9.76328 43.7271 5.7709 37.7175ZM26.4028 48.0052C39.2857 25.6914 38.3115 27.4331 38.5207 26.8897L44.5162 37.2742C40.631 43.4254 34.0019 47.552 26.4028 48.0052Z" fill="#E2A000"/>
<path d="M22.0552 7.59521H22.0576C22.597 7.59521 23.0329 7.15801 23.0329 6.61865C23.0329 6.0793 22.5945 5.64209 22.0552 5.64209C21.5158 5.64209 21.0786 6.0793 21.0786 6.61865C21.0786 7.15801 21.5158 7.59521 22.0552 7.59521Z" fill="#E2A000"/>
<path d="M99.5 32.293C95.5197 32.293 92.293 35.5197 92.293 39.5C92.293 43.4803 95.5197 46.707 99.5 46.707C103.48 46.707 106.707 43.4803 106.707 39.5C106.707 35.5197 103.48 32.293 99.5 32.293ZM103.198 40.1402L101.903 42.3821C101.674 42.7782 101.252 43.0223 100.794 43.0223H98.2056C97.7482 43.0223 97.3255 42.7782 97.0968 42.3821L95.8024 40.1402C95.5737 39.744 95.5737 39.256 95.8024 38.8598L97.0968 36.6179C97.3255 36.2218 97.7482 35.9777 98.2056 35.9777H100.794C101.252 35.9777 101.674 36.2218 101.903 36.6179L103.198 38.8598C103.426 39.256 103.426 39.744 103.198 40.1402Z" fill="#0F0F0F"/>
<path d="M101.903 36.618C101.674 36.2218 101.252 35.9778 100.794 35.9778H98.2057C97.7482 35.9778 97.3255 36.2218 97.0968 36.618L95.8024 38.8599C95.5737 39.256 95.5737 39.7441 95.8024 40.1403L97.0968 42.3821C97.3255 42.7783 97.7482 43.0223 98.2057 43.0223H100.794C101.252 43.0223 101.674 42.7783 101.903 42.3821L103.198 40.1403C103.426 39.7441 103.426 39.256 103.198 38.8599L101.903 36.618Z" fill="#E2A000"/>
<path d="M99.5 32C95.355 32 92 35.3544 92 39.5C92 43.645 95.3544 47 99.5 47C103.645 47 107 43.6456 107 39.5C107 35.355 103.646 32 99.5 32ZM105.689 42.5896C101.822 35.8906 102.129 36.4066 102.019 36.2707H105.617C106.64 38.2023 106.694 40.5814 105.689 42.5896ZM101.649 42.2367C101.473 42.5406 101.146 42.7293 100.794 42.7293C100.443 42.7293 98.4324 42.7293 98.2056 42.7293C97.854 42.7293 97.5263 42.5401 97.3505 42.2356L96.0562 39.9937C95.8803 39.6892 95.8803 39.3108 96.0562 39.0063L97.3505 36.7644C97.5263 36.4599 97.854 36.2707 98.2056 36.2707H100.794C101.146 36.2707 101.474 36.4599 101.649 36.7644L102.944 39.0063C103.12 39.3108 103.12 39.6892 102.944 39.9937C102.78 40.2773 101.791 41.9901 101.649 42.2367ZM99.0792 32.5984L98.9716 32.7847C98.8907 32.9248 98.9387 33.104 99.0789 33.1849C99.2183 33.2654 99.3978 33.2184 99.4791 33.0776L99.7602 32.5907C102.065 32.6754 104.071 33.8817 105.269 35.6847C105.265 35.6847 98.1378 35.6762 97.9629 35.7037L98.3108 35.1012C98.3917 34.961 98.3437 34.7819 98.2036 34.701C98.0635 34.6201 97.8843 34.6681 97.8034 34.8082C97.1145 35.9948 95.5313 38.7059 95.4438 38.933L93.6451 35.8177C94.8084 33.9761 96.7954 32.7347 99.0792 32.5984ZM93.3107 36.4104C95.0853 39.495 96.8279 42.54 96.9809 42.7293H93.3827C92.3599 40.7976 92.3058 38.4186 93.3107 36.4104ZM93.7313 43.3152C101.466 43.3152 100.865 43.3234 101.037 43.2963L99.2463 46.3981C99.2442 46.4018 99.2421 46.4055 99.2401 46.4093C96.9347 46.3247 94.929 45.1181 93.7313 43.3152ZM99.9208 46.4016C103.786 39.7074 103.493 40.2299 103.556 40.0669L105.355 43.1823C104.189 45.0276 102.201 46.2656 99.9208 46.4016Z" fill="#E2A000"/>
<path d="M98.6165 34.2786H98.6173C98.7791 34.2786 98.9099 34.1474 98.9099 33.9856C98.9099 33.8238 98.7784 33.6926 98.6165 33.6926C98.4547 33.6926 98.3236 33.8238 98.3236 33.9856C98.3236 34.1474 98.4547 34.2786 98.6165 34.2786Z" fill="#E2A000"/>
</svg>
