<svg width="10" height="17" viewBox="0 0 10 17" fill="none" xmlns="http://www.w3.org/2000/svg">
<path d="M6.91357 8.57133L0.81377 14.6711L0.813745 14.6712C0.395418 15.0895 0.395418 15.7678 0.813745 16.1862L0.81385 16.1863C1.23224 16.6045 1.91044 16.6046 2.32884 16.1863L2.32889 16.1863L9.18626 9.32889L9.18631 9.32884C9.60456 8.91046 9.60456 8.23221 9.18631 7.81382L9.18626 7.81377L2.3289 0.95641L2.32895 0.956356L2.32269 0.950311C1.89704 0.539229 1.21876 0.551032 0.807673 0.976679L0.807654 0.976699C0.406706 1.3919 0.406668 2.05013 0.80768 2.46534L0.807626 2.46539L0.813771 2.47153L6.91357 8.57133Z" fill="black" stroke="#010101"/>
</svg>
